Coordinates
version=1
nRows=29
nColumns=24
inDegrees=yes

Units are S.I. units (second, meters, Newtons, ...)
Angles are in degrees.

endheader
time	pelvis_tilt	pelvis_list	pelvis_rotation	pelvis_tx	pelvis_ty	pelvis_tz	hip_flexion_r	hip_adduction_r	hip_rotation_r	knee_angle_r	ankle_angle_r	subtalar_angle_r	mtp_angle_r	hip_flexion_l	hip_adduction_l	hip_rotation_l	knee_angle_l	ankle_angle_l	subtalar_angle_l	mtp_angle_l	lumbar_extension	lumbar_bending	lumbar_rotation
      1.47000000	     92.85316788	     17.42014876	    -93.81890100	      0.35566183	      0.28616598	      1.01476483	      7.19899144	     -6.85562371	    -14.83014952	    -10.25423488	    -44.85929855	     -1.74545602	    -25.17324631	    -11.56867681	    -17.04336285	    -11.13911819	    -60.45348244	    -24.42314925	     -0.14557499	     73.45799169	      0.00000000	      0.00000000	      0.00000000
      1.48000000	     92.86111860	     17.41769027	    -93.82257697	      0.35568370	      0.28620660	      1.01477089	      7.15055654	     -6.93431678	    -15.11222964	    -10.53926906	    -44.37680818	     -1.74545602	    -25.17324631	    -11.58186355	    -17.03488129	    -11.14146743	    -60.44120940	    -24.41814081	     -0.14557499	     73.45799169	      0.00000000	      0.00000000	      0.00000000
      1.49000000	     92.86809362	     17.40987107	    -93.83144313	      0.35569877	      0.28624439	      1.01479756	      7.07048826	     -7.02492484	    -15.42733730	    -10.92501398	    -43.67252720	     -1.74545602	    -25.17324631	    -11.60721192	    -17.01959429	    -11.14355839	    -60.42104538	    -24.41562532	     -0.14557499	     73.45799169	      0.00000000	      0.00000000	      0.00000000
      1.50000000	     92.87499873	     17.39587493	    -93.84565328	      0.35569862	      0.28628792	      1.01484808	      6.95252422	     -7.12044875	    -15.75130251	    -11.41620181	    -42.74449848	     -1.74545602	    -25.17324631	    -11.64633988	    -16.99556449	    -11.14386519	    -60.39269201	    -24.41652115	     -0.14557499	     73.45799169	      0.00000000	      0.00000000	      0.00000000
      1.51000000	     92.88465684	     17.37595688	    -93.86250343	      0.35567613	      0.28636349	      1.01491353	      6.79131499	     -7.21273692	    -16.04474134	    -12.00689796	    -41.61901847	     -1.74545602	    -25.17324631	    -11.69659275	    -16.96300221	    -11.13973133	    -60.35801849	    -24.42094695	     -0.14557499	     73.45799169	      0.00000000	      0.00000000	      0.00000000
      1.52000000	     92.89892866	     17.35260598	    -93.87690244	      0.35564964	      0.28647226	      1.01499037	      6.58126132	     -7.29724329	    -16.25690304	    -12.68248953	    -40.35108461	     -1.74545602	    -25.17324631	    -11.75082900	    -16.92546609	    -11.12813677	    -60.32004419	    -24.42821410	     -0.14557499	     73.45799169	      0.00000000	      0.00000000	      0.00000000
      1.53000000	     92.91603668	     17.33210165	    -93.88351811	      0.35564901	      0.28657231	      1.01507207	      6.31520554	     -7.37568601	    -16.33501951	    -13.42465552	    -39.02047513	     -1.74545602	    -25.17324631	    -11.79847851	    -16.88931743	    -11.10708356	    -60.28154467	    -24.43717316	     -0.14557499	     73.45799169	      0.00000000	      0.00000000	      0.00000000
      1.54000000	     92.93149005	     17.32376717	    -93.87965428	      0.35566666	      0.28663457	      1.01514377	      5.98595582	     -7.45330938	    -16.23732288	    -14.21678104	    -37.72276203	     -1.74545602	    -25.17324631	    -11.82851005	    -16.86115938	    -11.07704484	    -60.24434140	    -24.44674845	     -0.14557499	     73.45799169	      0.00000000	      0.00000000	      0.00000000
      1.55000000	     92.94113547	     17.33630298	    -93.86699419	      0.35565679	      0.28668296	      1.01520006	      5.59079098	     -7.53407200	    -15.94447475	    -15.04728813	    -36.55575274	     -1.74545602	    -25.17324631	    -11.83365622	    -16.84481359	    -11.04148214	    -60.20966599	    -24.45642540	     -0.14557499	     73.45799169	      0.00000000	      0.00000000	      0.00000000
      1.56000000	     92.94251603	     17.37373699	    -93.85097599	      0.35560284	      0.28673964	      1.01524386	      5.13505282	     -7.61876336	    -15.46316350	    -15.91060434	    -35.60352894	     -1.74545602	    -25.17324631	    -11.81334808	    -16.83961876	    -11.00589426	    -60.17885102	    -24.46647565	     -0.14557499	     73.45799169	      0.00000000	      0.00000000	      0.00000000
      1.57000000	     92.93597044	     17.43349839	    -93.83814676	      0.35556558	      0.28679290	      1.01528270	      4.63125863	     -7.70438154	    -14.81984789	    -16.80755202	    -34.92194512	     -1.74545602	    -25.17324631	    -11.77292336	    -16.84077510	    -10.97579243	    -60.15323209	    -24.47782003	     -0.14557499	     73.45799169	      0.00000000	      0.00000000	      0.00000000
      1.58000000	     92.92619438	     17.50861516	    -93.83284611	      0.35560431	      0.28684662	      1.01533856	      4.09329917	     -7.78377626	    -14.04792016	    -17.74612036	    -34.53003496	     -1.74545602	    -25.17324631	    -11.71955882	    -16.84154222	    -10.95450495	    -60.13314941	    -24.49159937	     -0.14557499	     73.45799169	      0.00000000	      0.00000000	      0.00000000
      1.59000000	     92.92049411	     17.59266814	    -93.83477215	      0.35567119	      0.28692903	      1.01543061	      3.53046285	     -7.84949101	    -13.17476531	    -18.73998380	    -34.41028004	     -1.74545602	    -25.17324631	    -11.65818958	    -16.83642265	    -10.94160935	    -60.11720708	    -24.50866826	     -0.14557499	     73.45799169	      0.00000000	      0.00000000	      0.00000000
      1.60000000	     92.92464522	     17.68282095	    -93.83892393	      0.35568399	      0.28704780	      1.01554395	      2.94713795	     -7.89997369	    -12.21552975	    -19.80288751	    -34.51830056	     -1.74545602	    -25.17324631	    -11.58997624	    -16.82347412	    -10.93259595	    -60.10278480	    -24.52925719	     -0.14557499	     73.45799169	      0.00000000	      0.00000000	      0.00000000
      1.61000000	     92.94129218	     17.78012512	    -93.83816350	      0.35566405	      0.28718001	      1.01563935	      2.34681338	     -7.94107204	    -11.17622104	    -20.94274863	    -34.79992409	     -1.74545602	    -25.17324631	    -11.51265612	    -16.80364077	    -10.92015544	    -60.08734966	    -24.55291352	     -0.14557499	     73.45799169	      0.00000000	      0.00000000	      0.00000000
      1.62000000	     92.97193546	     17.88934471	    -93.82681296	      0.35570371	      0.28730458	      1.01570199	      1.73524210	     -7.98138525	    -10.06306785	    -22.15975508	    -35.21063081	     -1.74545602	    -25.17324631	    -11.42090381	    -16.77724572	    -10.89666719	    -60.06928767	    -24.57863608	     -0.14557499	     73.45799169	      0.00000000	      0.00000000	      0.00000000
      1.63000000	     93.01965060	     18.01852855	    -93.80309450	      0.35583292	      0.28743570	      1.01576686	      1.12143449	     -8.02714389	     -8.89213954	    -23.44764207	    -35.73074246	     -1.74545602	    -25.17324631	    -11.30655362	    -16.74077276	    -10.85647079	    -60.04772520	    -24.60502612	     -0.14557499	     73.45799169	      0.00000000	      0.00000000	      0.00000000
      1.64000000	     93.08943409	     18.17727920	    -93.76916936	      0.35600636	      0.28761161	      1.01587693	      0.51801307	     -8.08244721	     -7.69389755	    -24.79497610	    -36.37075358	     -1.74545602	    -25.17324631	    -11.15967535	    -16.68695435	    -10.79664293	    -60.02196531	    -24.63036421	     -0.14557499	     73.45799169	      0.00000000	      0.00000000	      0.00000000
      1.65000000	     93.18633578	     18.37423879	    -93.72942780	      0.35619422	      0.28784907	      1.01603510	     -0.05888723	     -8.15334206	     -6.51080470	    -26.18608969	    -37.16439596	     -1.74545602	    -25.17324631	    -10.97056363	    -16.60789651	    -10.71639163	    -59.99130061	    -24.65268988	     -0.14557499	     73.45799169	      0.00000000	      0.00000000	      0.00000000
      1.66000000	     93.31386509	     18.61566035	    -93.68852261	      0.35641226	      0.28812754	      1.01621798	     -0.59124081	     -8.24944422	     -5.38970724	    -27.60357825	    -38.15116746	     -1.74545602	    -25.17324631	    -10.73190850	    -16.49857356	    -10.61624880	    -59.95525814	    -24.67003030	     -0.14557499	     73.45799169	      0.00000000	      0.00000000	      0.00000000
      1.67000000	     93.47345065	     18.90505276	    -93.64984874	      0.35669233	      0.28841769	      1.01640940	     -1.06148983	     -8.38095421	     -4.37227971	    -29.03213428	    -39.35364439	     -1.74545602	    -25.17324631	    -10.44056301	    -16.35878098	    -10.49791772	    -59.91376497	    -24.68085443	     -0.14557499	     73.45799169	      0.00000000	      0.00000000	      0.00000000
      1.68000000	     93.66381464	     19.24226336	    -93.61462608	      0.35705978	      0.28870766	      1.01661563	     -1.45383270	     -8.55413947	     -3.48671107	    -30.46154290	    -40.75686799	     -1.74545602	    -25.17324631	    -10.09828351	    -16.19338281	    -10.36472448	    -59.86684398	    -24.68469323	     -0.14557499	     73.45799169	      0.00000000	      0.00000000	      0.00000000
      1.69000000	     93.87968125	     19.62268755	    -93.58209395	      0.35751958	      0.28899951	      1.01685955	     -1.75496919	     -8.76867626	     -2.74312865	    -31.88797935	    -42.29709814	     -1.74545602	    -25.17324631	     -9.71123640	    -16.01141137	    -10.22212815	    -59.81407694	    -24.68272524	     -0.14557499	     73.45799169	      0.00000000	      0.00000000	      0.00000000
      1.70000000	     94.11111024	     20.03830696	    -93.55092688	      0.35804556	      0.28929428	      1.01715114	     -1.95550503	     -9.01755908	     -2.13419070	    -33.31396236	    -43.86485805	     -1.74545602	    -25.17324631	     -9.28900612	    -15.82442949	    -10.07776858	    -59.75446715	    -24.67803066	     -0.14557499	     73.45799169	      0.00000000	      0.00000000	      0.00000000
      1.71000000	     94.34499089	     20.47940642	    -93.52087137	      0.35859034	      0.28958464	      1.01747171	     -2.05094351	     -9.28882146	     -1.64043565	    -34.74683339	    -45.32263409	     -1.74545602	    -25.17324631	     -8.84385278	    -15.64462301	     -9.94071047	    -59.68692341	    -24.67520682	     -0.14557499	     73.45799169	      0.00000000	      0.00000000	      0.00000000
      1.72000000	     94.56829717	     20.93510131	    -93.49346703	      0.35912151	      0.28985979	      1.01779666	     -2.04117806	     -9.56865172	     -1.23808784	    -36.19581629	    -46.53260413	     -1.74545602	    -25.17324631	     -8.39028003	    -15.48313615	     -9.81986852	    -59.61099021	    -24.67923556	     -0.14557499	     73.45799169	      0.00000000	      0.00000000	      0.00000000
      1.73000000	     94.77098394	     21.39278060	    -93.47150762	      0.35963608	      0.29011235	      1.01811952	     -1.92926221	     -9.84538960	     -0.90638627	    -37.66850051	    -47.38633032	     -1.74545602	    -25.17324631	     -7.94457679	    -15.34854012	     -9.72217375	    -59.52749170	    -24.69389834	     -0.14557499	     73.45799169	      0.00000000	      0.00000000	      0.00000000
      1.74000000	     94.94687355	     21.83762984	    -93.45803913	      0.36013436	      0.29033782	      1.01844143	     -1.72086622	    -10.11305388	     -0.63226620	    -39.16768150	    -47.82761373	     -1.74545602	    -25.17324631	     -7.52378862	    -15.24538217	     -9.65118339	    -59.43891732	    -24.72033616	     -0.14557499	     73.45799169	      0.00000000	      0.00000000	      0.00000000
      1.75000000	     95.09290430	     22.25306450	    -93.45577942	      0.36060332	      0.29053187	      1.01875685	     -1.42483984	    -10.37268939	     -0.41142914	    -40.68922312	    -47.86197808	     -1.74545602	    -25.17324631	     -7.14385647	    -15.17356578	     -9.60640169	    -59.34931736	    -24.75634633	     -0.14557499	     73.45799169	      0.00000000	      0.00000000	      0.00000000
